<svg width="111px" height="30px" viewBox="0 0 111 30" version="1.1" xmlns="http://www.w3.org/2000/svg" xmlns:xlink="http://www.w3.org/1999/xlink">
    <g id="Responsive-&amp;-Guides" stroke="none" stroke-width="1" fill="none" fill-rule="evenodd">
        <g id="iPhone-8" transform="translate(-132.000000, -4525.000000)" fill="#2524FF">
            <g id="Download-app" transform="translate(36.000000, 4238.000000)">
                <g id="apple" transform="translate(64.000000, 276.000000)">
                    <g id="Group-12" transform="translate(31.963470, 11.156250)">
                        <path d="M42.1439153,25.2558225 L39.875484,25.2558225 L38.632891,21.3256168 L34.3137819,21.3256168 L33.1301222,25.2558225 L30.921623,25.2558225 L35.2007774,11.8756287 L37.8437846,11.8756287 L42.1439153,25.2558225 L42.1439153,25.2558225 Z M38.2583152,19.67672 L34.6893566,19.67672 L35.7931067,16.1828687 C36.0827787,15.0718743 36.29354,14.2313391 36.4243919,13.6622687 L36.4643466,13.6622687 C36.7929745,14.9854078 37.0157223,15.8259429 37.1345877,16.1828687 L38.2583152,19.67672 Z M53.1484541,20.313154 C53.1484541,21.9540073 52.7079529,23.2510053 51.8269505,24.2031427 C51.037844,25.0507158 50.0579536,25.4739997 48.8882781,25.4739997 C47.6257078,25.4739997 46.7187349,25.0175368 46.1663604,24.104611 L46.1264056,24.104611 L46.1264056,29.1870336 L43.9968171,29.1870336 L43.9968171,18.7839028 C43.9968171,17.7523369 43.9698476,16.6936246 43.9179064,15.6077657 L45.7907856,15.6077657 L45.909651,17.1370169 L45.9496058,17.1370169 C46.6598016,15.9848 47.7375812,15.409697 49.1839433,15.409697 C50.314663,15.409697 51.2585941,15.8591219 52.013739,16.7589772 C52.7708816,17.6598378 53.1484541,18.8442283 53.1484541,20.313154 Z M50.9789108,20.3915771 C50.9789108,19.4525103 50.7691483,18.6783332 50.3476256,18.0690457 C49.8871471,17.4336172 49.2688472,17.115903 48.4937249,17.115903 C47.9683199,17.115903 47.4908605,17.2928578 47.0643435,17.6417402 C46.6368276,17.9936389 46.3571443,18.453118 46.2262925,19.0221885 C46.1603671,19.2876206 46.1274045,19.5047924 46.1274045,19.6757146 L46.1274045,21.2843944 C46.1274045,21.9861809 46.3411624,22.5783761 46.7686783,23.0619855 C47.1961942,23.5455948 47.7515653,23.7868968 48.4347917,23.7868968 C49.2368834,23.7868968 49.8611765,23.4752151 50.3076709,22.8538625 C50.7551641,22.2315046 50.9789108,21.4110779 50.9789108,20.3915771 Z M64.1729702,20.313154 C64.1729702,21.9540073 63.732469,23.2510053 62.8504678,24.2031427 C62.0623602,25.0507158 61.0824698,25.4739997 59.9127943,25.4739997 C58.650224,25.4739997 57.743251,25.0175368 57.1918754,24.104611 L57.1519207,24.104611 L57.1519207,29.1870336 L55.0223321,29.1870336 L55.0223321,18.7839028 C55.0223321,17.7523369 54.9953627,16.6936246 54.9434215,15.6077657 L56.8163007,15.6077657 L56.9351661,17.1370169 L56.9751209,17.1370169 C57.6843178,15.9848 58.7620973,15.409697 60.2094584,15.409697 C61.3391791,15.409697 62.2831103,15.8591219 63.0402529,16.7589772 C63.7943989,17.6598378 64.1729702,18.8442283 64.1729702,20.313154 Z M62.003427,20.3915771 C62.003427,19.4525103 61.7926656,18.6783332 61.3711429,18.0690457 C60.9106644,17.4336172 60.2943622,17.115903 59.5182411,17.115903 C58.9918372,17.115903 58.5153767,17.2928578 58.0878608,17.6417402 C57.6603449,17.9936389 57.3816605,18.453118 57.2508087,19.0221885 C57.1858822,19.2876206 57.1519207,19.5047924 57.1519207,19.6757146 L57.1519207,21.2843944 C57.1519207,21.9861809 57.3656786,22.5783761 57.7911968,23.0619855 C58.2187127,23.5445894 58.7740838,23.7868968 59.4593078,23.7868968 C60.2613996,23.7868968 60.8856926,23.4752151 61.332187,22.8538625 C61.7796803,22.2315046 62.003427,21.4110779 62.003427,20.3915771 Z M76.4990126,21.503577 C76.4990126,22.6417179 76.1064571,23.5677142 75.3183496,24.2825712 C74.4523302,25.0637863 73.2466954,25.4538912 71.6974497,25.4538912 C70.2670695,25.4538912 69.120368,25.1763939 68.2523509,24.620394 L68.7457921,22.833754 C69.6807334,23.4028245 70.7065718,23.6883651 71.8243061,23.6883651 C72.6263978,23.6883651 73.2506909,23.5053778 73.699183,23.141414 C74.1456774,22.7774502 74.3684252,22.2888138 74.3684252,21.6795263 C74.3684252,21.1365969 74.1846333,20.6791286 73.8160507,20.3081268 C73.4494658,19.9371251 72.8371592,19.5922644 71.9821274,19.2735447 C69.6547628,18.3998305 68.4920794,17.1199247 68.4920794,15.4368435 C68.4920794,14.3369087 68.8996179,13.4350427 69.7156938,12.7332561 C70.5287731,12.0304642 71.6135448,11.6795709 72.9700087,11.6795709 C74.179639,11.6795709 75.1845011,11.8917155 75.9865929,12.3149994 L75.4541957,14.0624278 C74.705044,13.6522144 73.8580032,13.4471078 72.9100766,13.4471078 C72.1609249,13.4471078 71.5755877,13.6331114 71.1560628,14.0031077 C70.8014643,14.3338925 70.6236657,14.7370678 70.6236657,15.2146446 C70.6236657,15.7434981 70.8264361,16.1808579 71.2339746,16.5247132 C71.588573,16.8424274 72.2328435,17.1862827 73.1677848,17.5572845 C74.3114897,18.0207853 75.1515384,18.5627093 75.6919265,19.1840619 C76.2303169,19.8034036 76.4990126,20.5785861 76.4990126,21.503577 Z M83.5400396,17.2164455 L81.1926976,17.2164455 L81.1926976,21.9007198 C81.1926976,23.0921482 81.6062294,23.6873597 82.4352905,23.6873597 C82.8158596,23.6873597 83.1315022,23.6541807 83.3812194,23.5878227 L83.4401527,25.2156055 C83.0206277,25.3734572 82.4682532,25.4528857 81.784028,25.4528857 C80.9429804,25.4528857 80.2857247,25.1944916 79.8112619,24.6787086 C79.3387969,24.1619202 79.1010661,23.295244 79.1010661,22.0776746 L79.1010661,17.2144346 L77.7026496,17.2144346 L77.7026496,15.6057549 L79.1010661,15.6057549 L79.1010661,13.8392234 L81.1926976,13.2037949 L81.1926976,15.6057549 L83.5400396,15.6057549 L83.5400396,17.2164455 Z M94.1310466,20.3523655 C94.1310466,21.8353672 93.709524,23.0529367 92.8684763,24.005074 C91.9864751,24.9853632 90.8158007,25.4739997 89.3564532,25.4739997 C87.9500458,25.4739997 86.8303138,25.0044663 85.9952594,24.0653995 C85.1602049,23.1263327 84.7426777,21.9409368 84.7426777,20.5122281 C84.7426777,19.0171614 85.1721914,17.7925539 86.0342152,16.8404166 C86.8942414,15.8872738 88.054927,15.4107025 89.5142745,15.4107025 C90.920682,15.4107025 92.0524004,15.8802359 92.9064334,16.8203081 C93.7235081,17.7322284 94.1310466,18.9095809 94.1310466,20.3523655 Z M91.9215486,20.4217399 C91.9215486,19.5319389 91.7327624,18.7688214 91.3501956,18.1323875 C90.9037012,17.3622321 90.2654239,16.9781598 89.4383605,16.9781598 C88.5823298,16.9781598 87.9320662,17.3632375 87.4855718,18.1323875 C87.103005,18.7698268 86.9142187,19.5450094 86.9142187,20.4619568 C86.9142187,21.3517578 87.103005,22.1148753 87.4855718,22.7503038 C87.9460503,23.5204592 88.5893219,23.9045315 89.419382,23.9045315 C90.2324613,23.9045315 90.8707385,23.5124158 91.3312171,22.7301953 C91.7237726,22.0816963 91.9215486,21.3105354 91.9215486,20.4217399 Z M101.053208,17.4929373 C100.842447,17.4537257 100.617701,17.4336172 100.381968,17.4336172 C99.6328166,17.4336172 99.0534726,17.7181525 98.6459341,18.2882283 C98.2913357,18.7909408 98.113537,19.4263693 98.113537,20.1935084 L98.113537,25.2558225 L95.9849473,25.2558225 L96.0049247,18.6461596 C96.0049247,17.5341597 95.9779553,16.5216969 95.9250152,15.6087712 L97.7799148,15.6087712 L97.8578265,17.4547312 L97.9167598,17.4547312 C98.1415053,16.8203081 98.4961038,16.3095523 98.9815541,15.9264854 C99.4560168,15.5816247 99.9684366,15.409697 100.520811,15.409697 C100.717588,15.409697 100.895387,15.423773 101.053208,15.4489086 L101.053208,17.4929373 Z M110.577423,19.9753312 C110.577423,20.3594035 110.552452,20.6831503 110.499511,20.947577 L104.110746,20.947577 C104.135718,21.9007198 104.444368,22.6296528 105.037696,23.1323652 C105.576087,23.5817901 106.272298,23.8070053 107.12733,23.8070053 C108.073259,23.8070053 108.936282,23.6551861 109.712403,23.3505424 L110.046025,24.8385712 C109.139052,25.2367194 108.068265,25.4347881 106.832664,25.4347881 C105.346347,25.4347881 104.179668,24.994412 103.330629,24.1146653 C102.483588,23.2349185 102.059069,22.0535444 102.059069,20.5715482 C102.059069,19.1166984 102.453622,17.9051615 103.243728,16.9389482 C104.070791,15.9073823 105.188525,15.3915994 106.594933,15.3915994 C107.976369,15.3915994 109.022184,15.9073823 109.73238,16.9389482 C110.294743,17.7583695 110.577423,18.7718377 110.577423,19.9753312 Z M108.546723,19.4193313 C108.560707,18.7839028 108.421864,18.2349408 108.133191,17.77144 C107.764608,17.1752231 107.19825,16.8776173 106.436113,16.8776173 C105.739901,16.8776173 105.173542,17.1681851 104.741032,17.7513315 C104.386434,18.2148323 104.175672,18.7708323 104.110746,19.4183259 L108.546723,19.4183259 L108.546723,19.4193313 Z" id="app-store"></path>
                        <path d="M37.0963613,4.40997173 C37.0963613,5.56451473 36.7405952,6.43360998 36.0300707,7.01725746 C35.3719536,7.55578262 34.4366817,7.82553566 33.2252626,7.82553566 C32.6245922,7.82553566 32.1105957,7.80003174 31.6802497,7.74902389 L31.6802497,1.44072646 C32.2416144,1.35244365 32.8463162,1.30732132 33.499394,1.30732132 C34.6533664,1.30732132 35.5231291,1.55157043 36.1096897,2.04006866 C36.7667989,2.5923267 37.0963613,3.38196742 37.0963613,4.40997173 Z M35.9827024,4.43841841 C35.9827024,3.68997634 35.7791194,3.11613806 35.3719536,2.71592264 C34.9647878,2.31668814 34.3701645,2.11658044 33.5870757,2.11658044 C33.2544898,2.11658044 32.9712878,2.13816068 32.736462,2.18328301 L32.736462,6.97900158 C32.8664729,6.99861998 33.1043222,7.00744826 33.45001,7.00744826 C34.2582946,7.00744826 34.8821452,6.78870307 35.3215618,6.35121269 C35.7609784,5.9137223 35.9827024,5.27612421 35.9827024,4.43841841 Z M43.0012735,5.41835763 C43.0012735,6.12952473 42.7926514,6.7121913 42.3754072,7.16930008 C41.9380063,7.63916083 41.3585005,7.87360075 40.6348742,7.87360075 C39.9374515,7.87360075 39.3821338,7.64897003 38.9679131,7.19774677 C38.5547003,6.74750442 38.3480939,6.17955166 38.3480939,5.4948694 C38.3480939,4.7787977 38.5607473,4.19122653 38.9880698,3.73509867 C39.4153924,3.2789708 39.989859,3.05041641 40.7134854,3.05041641 C41.410908,3.05041641 41.9712649,3.27504712 42.395564,3.72528947 C42.7986984,4.16277985 43.0012735,4.72778985 43.0012735,5.41835763 Z M41.9057556,5.45170892 C41.9057556,5.02500866 41.811019,4.65912544 41.6225536,4.35405928 C41.4008297,3.98523331 41.0853769,3.80082032 40.6751876,3.80082032 C40.2508886,3.80082032 39.928381,3.98523331 39.706657,4.35405928 C39.5171838,4.65912544 39.4234551,5.03089418 39.4234551,5.4703464 C39.4234551,5.89704666 39.5181917,6.26292987 39.706657,6.56799604 C39.9354359,6.93682201 40.2539121,7.121235 40.6651092,7.121235 C41.0682437,7.121235 41.3847043,6.93387925 41.6124753,6.55818684 C41.8079955,6.24723515 41.9057556,5.87840918 41.9057556,5.45170892 Z M50.9188345,3.14458474 L49.4322762,7.76864229 L48.4647534,7.76864229 L47.8489655,5.76069876 C47.6927509,5.25944857 47.5657636,4.76114114 47.4669956,4.26675739 L47.4478467,4.26675739 C47.3561336,4.77487402 47.2291463,5.27220053 47.0658768,5.76069876 L46.4117911,7.76864229 L45.4331822,7.76864229 L44.0353134,3.14458474 L45.120753,3.14458474 L45.6579297,5.34282678 C45.7879406,5.86271446 45.8947712,6.35807913 45.9804373,6.82695896 L45.9995861,6.82695896 C46.0781974,6.44047642 46.2082082,5.94805451 46.3916344,5.35263598 L47.0658768,3.14556566 L47.9265689,3.14556566 L48.5725919,5.30555182 C48.7288065,5.83230593 48.8557939,6.33944164 48.953554,6.82793988 L48.9827812,6.82793988 C49.0543376,6.35219361 49.1621761,5.84505789 49.3052888,5.30555182 L49.8817711,3.14556566 L50.9188345,3.14556566 L50.9188345,3.14458474 Z M56.3944085,7.76864229 L55.3381962,7.76864229 L55.3381962,5.12015791 C55.3381962,4.30403235 55.01972,3.89596957 54.3807518,3.89596957 C54.0673148,3.89596957 53.8143479,4.00779447 53.6178198,4.23242518 C53.4233075,4.45705589 53.3245395,4.72190433 53.3245395,5.02500866 L53.3245395,7.76766137 L52.2683272,7.76766137 L52.2683272,4.46588417 C52.2683272,4.05978324 52.2552253,3.61935009 52.2300294,3.1426229 L53.1582465,3.1426229 L53.2076305,3.86556105 L53.2368578,3.86556105 C53.3598138,3.64093034 53.54324,3.45553643 53.7841128,3.30741749 C54.0703383,3.13477554 54.3908302,3.04747365 54.7415572,3.04747365 C55.1850051,3.04747365 55.5538731,3.18676431 55.8471535,3.46632655 C56.2119902,3.80866768 56.3944085,4.31972707 56.3944085,4.99852381 L56.3944085,7.76864229 Z M58.2518506,1.02285448 L59.3070551,1.02285448 L59.3070551,7.76864229 L58.2518506,7.76864229 L58.2518506,1.02285448 Z M65.5254043,5.41835763 C65.5254043,6.12952473 65.3167822,6.7121913 64.899538,7.16930008 C64.4621371,7.63916083 63.8816235,7.87360075 63.159005,7.87360075 C62.4605745,7.87360075 61.9052567,7.64897003 61.4920439,7.19774677 C61.0788311,6.74750442 60.8722247,6.17955166 60.8722247,5.4948694 C60.8722247,4.7787977 61.0848781,4.19122653 61.5122006,3.73509867 C61.9395232,3.2789708 62.5139898,3.05041641 63.2366083,3.05041641 C63.9350388,3.05041641 64.4943879,3.27504712 64.9196948,3.72528947 C65.3228292,4.16277985 65.5254043,4.72778985 65.5254043,5.41835763 Z M64.4288785,5.45170892 C64.4288785,5.02500866 64.3341419,4.65912544 64.1456766,4.35405928 C63.9249605,3.98523331 63.6084999,3.80082032 63.1993184,3.80082032 C62.7740115,3.80082032 62.451504,3.98523331 62.2307878,4.35405928 C62.0413146,4.65912544 61.9475859,5.03089418 61.9475859,5.4703464 C61.9475859,5.89704666 62.0423225,6.26292987 62.2307878,6.56799604 C62.4595666,6.93682201 62.7780429,7.121235 63.18924,7.121235 C63.5923745,7.121235 63.9078272,6.93387925 64.1355982,6.55818684 C64.3321263,6.24723515 64.4288785,5.87840918 64.4288785,5.45170892 Z M70.6371494,7.76864229 L69.6887756,7.76864229 L69.6101643,7.23600265 L69.5809371,7.23600265 C69.2564138,7.66074108 68.793817,7.87360075 68.1931467,7.87360075 C67.7446596,7.87360075 67.3818386,7.73332917 67.1087149,7.45474785 C66.8607872,7.20167045 66.7368234,6.88679508 66.7368234,6.51306451 C66.7368234,5.94805451 66.9787041,5.51743057 67.465489,5.21923084 C67.951266,4.92103112 68.6345789,4.77487402 69.5144199,4.78174046 L69.5144199,4.69541949 C69.5144199,4.08626808 69.1858653,3.78218284 68.5277483,3.78218284 C68.0591045,3.78218284 67.6458916,3.89695049 67.2891176,4.12452397 L67.0744485,3.44965091 C67.5158808,3.18382155 68.0611201,3.05041641 68.7041196,3.05041641 C69.9457738,3.05041641 70.5686166,3.6880145 70.5686166,4.96321069 L70.5686166,6.66608805 C70.5686166,7.12810144 70.5917968,7.49594649 70.6371494,7.76864229 Z M69.5406237,6.17955166 L69.5406237,5.46642272 C68.375565,5.44680432 67.7930357,5.757756 67.7930357,6.39829685 C67.7930357,6.63960321 67.8595529,6.82009251 67.9956108,6.94074569 C68.1316687,7.06139887 68.3050165,7.121235 68.5116229,7.121235 C68.7434252,7.121235 68.96011,7.04962783 69.1576459,6.90739441 C69.3561896,6.76418007 69.4781378,6.58270984 69.5234904,6.36004097 C69.5345766,6.31001404 69.5406237,6.24919699 69.5406237,6.17955166 Z M76.6388139,7.76864229 L75.7015262,7.76864229 L75.6521422,7.02608574 L75.622915,7.02608574 C75.3235877,7.59109575 74.8136225,7.87360075 74.097051,7.87360075 C73.5246001,7.87360075 73.0478936,7.65485555 72.669955,7.21736517 C72.2920164,6.77987479 72.1035511,6.21192203 72.1035511,5.51448781 C72.1035511,4.76604574 72.3081418,4.15983709 72.719339,3.69684278 C73.1174343,3.26523792 73.605227,3.04943549 74.1857406,3.04943549 C74.8237009,3.04943549 75.2701723,3.25837148 75.5241471,3.67722438 L75.5443038,3.67722438 L75.5443038,1.02285448 L76.6015239,1.02285448 L76.6015239,6.52287371 C76.6015239,6.97311606 76.613618,7.38804528 76.6388139,7.76864229 Z M75.5443038,5.81857305 L75.5443038,5.04756982 C75.5443038,4.91416468 75.5342254,4.80626346 75.5150765,4.72386617 C75.4556142,4.4766743 75.327619,4.26871923 75.1331066,4.10098188 C74.9365786,3.93324454 74.6997371,3.84888541 74.4266135,3.84888541 C74.0325495,3.84888541 73.7241516,4.00092803 73.4973885,4.30599419 C73.272641,4.61106036 73.1587555,5.00048565 73.1587555,5.47623192 C73.1587555,5.93334071 73.266594,6.30412852 73.4832788,6.58957628 C73.7120576,6.89366152 74.0204555,7.04570415 74.4064567,7.04570415 C74.7531524,7.04570415 75.0303073,6.91916545 75.2409451,6.66510713 C75.444528,6.43066722 75.5443038,6.14816222 75.5443038,5.81857305 Z M85.6720496,5.41835763 C85.6720496,6.12952473 85.4634275,6.7121913 85.0461833,7.16930008 C84.6087824,7.63916083 84.0302844,7.87360075 83.3056502,7.87360075 C82.6092354,7.87360075 82.0539177,7.64897003 81.6386892,7.19774677 C81.2254763,6.74750442 81.0188699,6.17955166 81.0188699,5.4948694 C81.0188699,4.7787977 81.2315233,4.19122653 81.6588459,3.73509867 C82.0861684,3.2789708 82.660635,3.05041641 83.3852693,3.05041641 C84.0816841,3.05041641 84.6430488,3.27504712 85.06634,3.72528947 C85.4694745,4.16277985 85.6720496,4.72778985 85.6720496,5.41835763 Z M84.5775395,5.45170892 C84.5775395,5.02500866 84.4828029,4.65912544 84.2943375,4.35405928 C84.0716057,3.98523331 83.7571608,3.80082032 83.3459637,3.80082032 C82.9226725,3.80082032 82.6001649,3.98523331 82.3774331,4.35405928 C82.1879599,4.65912544 82.0942311,5.03089418 82.0942311,5.4703464 C82.0942311,5.89704666 82.1889677,6.26292987 82.3774331,6.56799604 C82.6062119,6.93682201 82.9246881,7.121235 83.3358853,7.121235 C83.7390198,7.121235 84.0564882,6.93387925 84.2842591,6.55818684 C84.4787715,6.24723515 84.5775395,5.87840918 84.5775395,5.45170892 Z M91.3512064,7.76864229 L90.296002,7.76864229 L90.296002,5.12015791 C90.296002,4.30403235 89.9775257,3.89596957 89.3375497,3.89596957 C89.0241127,3.89596957 88.7711458,4.00779447 88.5756256,4.23242518 C88.3801054,4.45705589 88.2823453,4.72190433 88.2823453,5.02500866 L88.2823453,7.76766137 L87.2251251,7.76766137 L87.2251251,4.46588417 C87.2251251,4.05978324 87.2130311,3.61935009 87.1878352,3.1426229 L88.1150445,3.1426229 L88.1644284,3.86556105 L88.1936557,3.86556105 C88.3176195,3.64093034 88.5010457,3.45553643 88.7409107,3.30741749 C89.028144,3.13477554 89.3476281,3.04747365 89.6993629,3.04747365 C90.141803,3.04747365 90.5106711,3.18676431 90.8039514,3.46632655 C91.1697959,3.80866768 91.3512064,4.31972707 91.3512064,4.99852381 L91.3512064,7.76864229 Z M98.459475,3.91460705 L97.2964321,3.91460705 L97.2964321,6.16091418 C97.2964321,6.7318097 97.5030385,7.01725746 97.91222,7.01725746 C98.1016932,7.01725746 98.2589156,7.00156274 98.3828795,6.96919238 L98.410091,7.74902389 C98.2014689,7.82553566 97.9273375,7.86379154 97.5897124,7.86379154 C97.1724682,7.86379154 96.847945,7.74019561 96.6131191,7.49300373 C96.3772855,7.24581186 96.2603765,6.82990172 96.2603765,6.24625423 L96.2603765,3.91460705 L95.5659773,3.91460705 L95.5659773,3.14458474 L96.2603765,3.14458474 L96.2603765,2.29706974 L97.2954242,1.9929845 L97.2954242,3.14360382 L98.4584672,3.14360382 L98.4584672,3.91460705 L98.459475,3.91460705 Z M104.05095,7.76864229 L102.99373,7.76864229 L102.99373,5.13977631 C102.99373,4.31089879 102.675254,3.89596957 102.037293,3.89596957 C101.547485,3.89596957 101.212883,4.13629501 101.029457,4.61694588 C100.998214,4.71798065 100.980073,4.84157659 100.980073,4.98675277 L100.980073,7.76766137 L99.9248688,7.76766137 L99.9248688,1.02285448 L100.980073,1.02285448 L100.980073,3.8096486 L101.00023,3.8096486 C101.332816,3.30251289 101.809522,3.04943549 102.427326,3.04943549 C102.864727,3.04943549 103.22654,3.18872615 103.513773,3.46828839 C103.871555,3.81651504 104.05095,4.33444088 104.05095,5.01912313 L104.05095,7.76864229 Z M109.818797,5.23786833 C109.818797,5.42228131 109.804687,5.57726669 109.779491,5.70380539 L106.611862,5.70380539 C106.625972,6.16091418 106.777147,6.50914083 107.070427,6.75044718 C107.338512,6.96624962 107.6842,7.07415083 108.107491,7.07415083 C108.576135,7.07415083 109.003457,7.00156274 109.388451,6.85540564 L109.553736,7.5695155 C109.103233,7.75981401 108.573111,7.85496326 107.959339,7.85496326 C107.223618,7.85496326 106.644113,7.64406543 106.224853,7.22226977 C105.803577,6.80047411 105.594955,6.23448319 105.594955,5.52429701 C105.594955,4.82686279 105.789468,4.24615806 106.181516,3.78316376 C106.590697,3.28878 107.143999,3.04158813 107.84243,3.04158813 C108.525743,3.04158813 109.044778,3.28878 109.395505,3.78316376 C109.678707,4.17553181 109.818797,4.66108728 109.818797,5.23786833 Z M108.81096,4.97203897 C108.819023,4.6669728 108.749482,4.40408621 108.60637,4.18239825 C108.422943,3.89695049 108.143773,3.75373615 107.765834,3.75373615 C107.421154,3.75373615 107.139968,3.89302681 106.925299,4.17258905 C106.749935,4.39525792 106.646128,4.66108728 106.611862,4.97203897 L108.81096,4.97203897 Z" id="download-on-the"></path>
                        <path d="M18.3181148,14.0249112 C18.3518866,17.9437906 21.7761441,19.2392628 21.818103,19.2534653 C21.7976352,19.3447672 21.2818475,21.1231249 19.9974951,22.9288731 C18.9249841,24.5185402 17.8013037,26.0727011 16.0165144,26.1011061 C14.2828945,26.1406703 13.6995631,25.0896842 11.7111195,25.0896842 C9.70425495,25.0896842 9.08305822,26.0727011 7.42005213,26.1406703 C5.72020406,26.2025526 4.42152423,24.4434698 3.31012447,22.8680052 C1.08834833,19.6511357 -0.641178,13.8027433 1.67782003,9.8229959 C2.80150045,7.87116467 4.85032395,6.61424216 7.04037505,6.5807648 C8.74226989,6.54627298 10.3213581,7.72000934 11.367261,7.72000934 C12.3926962,7.72000934 14.3453212,6.31598936 16.3583261,6.52598368 C17.2005747,6.55033085 19.5973503,6.8556849 21.1436901,9.09055196 C21.0188367,9.16460792 18.2884365,10.7552895 18.3181148,14.0249112 Z M15.043272,4.40980906 C14.1099419,5.50137372 12.6168182,6.33627867 11.1625834,6.22874535 C10.9722331,4.75574173 11.7090728,3.1894073 12.5339238,2.23378099 C13.4662306,1.14931759 15.085231,0.318470505 16.3798172,0.261660448 C16.5496997,1.79248859 15.9377135,3.30099849 15.043272,4.40980906 Z" id="apple"></path>
                    </g>
                </g>
            </g>
        </g>
    </g>
</svg>