<svg width="18px" height="14px" viewBox="0 0 18 14" version="1.1" xmlns="http://www.w3.org/2000/svg" xmlns:xlink="http://www.w3.org/1999/xlink">
    <g id="Responsive-&amp;-Guides" stroke="none" stroke-width="1" fill="none" fill-rule="evenodd">
        <g id="iPad" transform="translate(-108.000000, -3380.000000)" fill="#2524FF" fill-rule="nonzero">
            <path d="M111.385762,3387.77143 L115.642881,3391.94167 C116.030151,3392.32103 116.030151,3392.93611 115.642881,3393.31548 C115.255611,3393.69484 114.627722,3393.69484 114.240452,3393.31548 L108.290452,3387.4869 C107.903183,3387.10754 107.903183,3386.49246 108.290452,3386.1131 L114.240452,3380.28452 C114.627722,3379.90516 115.255611,3379.90516 115.642881,3380.28452 C116.030151,3380.66389 116.030151,3381.27897 115.642881,3381.65833 L111.385762,3385.82857 L124.858333,3385.82857 C125.406016,3385.82857 125.85,3386.26349 125.85,3386.8 C125.85,3387.33651 125.406016,3387.77143 124.858333,3387.77143 L111.385762,3387.77143 Z" id="Combined-Shape"></path>
        </g>
    </g>
</svg>