<svg id="Layer_1" data-name="Layer 1" xmlns="http://www.w3.org/2000/svg" width="240" height="294" viewBox="0 0 240 294"><title>blog</title><path d="M4,0H240a0,0,0,0,1,0,0V294a0,0,0,0,1,0,0H4a4,4,0,0,1-4-4V4A4,4,0,0,1,4,0Z" style="fill:#ffd435"/><path d="M0,99.93H240a0,0,0,0,1,0,0V294a0,0,0,0,1,0,0H4a4,4,0,0,1-4-4V99.93A0,0,0,0,1,0,99.93Z" style="fill:#ffc0d8"/><path d="M0,207.49H0V225.8c16.35.49,31.78.78,48.16,1.06C34.37,215.25,18.13,208.41,0,207.49Z" style="fill:#374dff;opacity:0.2"/><path d="M48.16,226.86c-16.38-.28-31.81-.57-48.16-1.06v18.93c20.2.29,46.47,0,66.67.18L53.41,231.66C51.73,230,50,228.38,48.16,226.86Z" style="fill:#374dff;opacity:0.1"/><path d="M87.47,227.16,99,238.71a20.57,20.57,0,0,0,14.57,6l126.41-.2V227Z" style="fill:#374dff;opacity:0.1"/><polygon points="240 226.96 240 212.98 73.29 212.98 87.47 227.16 240 226.96" style="fill:#374dff;opacity:0.2"/><path d="M111.37,39.34H240a0,0,0,0,1,0,0V150a0,0,0,0,1,0,0H111.37a4,4,0,0,1-4-4V43.34A4,4,0,0,1,111.37,39.34Z" style="fill:#fff"/><path d="M113.62,41.22H240a0,0,0,0,1,0,0V150a0,0,0,0,1,0,0H113.62a4,4,0,0,1-4-4V45.22A4,4,0,0,1,113.62,41.22Z" style="fill:#374dff;opacity:0.1"/><path d="M128.29,31.65H225.7a0,0,0,0,1,0,0v125a1,1,0,0,1-1,1H129.29a1,1,0,0,1-1-1v-125A0,0,0,0,1,128.29,31.65Z" transform="translate(271.65 -82.34) rotate(90)" style="fill:#ffc0d8"/><path d="M240,150H109.9a4.73,4.73,0,0,0-3.93,2.1L69.51,206.6H240Z" style="fill:#fff"/><path d="M240,150H109.9l56.62,56.63h-97v2.6A3.78,3.78,0,0,0,73.29,213H240V206.6" style="fill:#ebedff"/><path d="M240,156.89v4.73H121.51a.94.94,0,0,1-.78-1.47l1.62-2.42a1.9,1.9,0,0,1,1.57-.84Z" style="fill:#ffc0d8"/><path d="M240,166.66v4.73H115a.94.94,0,0,1-.78-1.47l1.62-2.42a1.88,1.88,0,0,1,1.57-.84Z" style="fill:#ffc0d8"/><path d="M240,176.42v4.73H108.46a.94.94,0,0,1-.79-1.47l1.62-2.42a1.88,1.88,0,0,1,1.57-.84Z" style="fill:#ffc0d8"/><path d="M0,141.88H40.27a2,2,0,0,1,2,2v42.17A30.74,30.74,0,0,1,11.53,216.8H0a0,0,0,0,1,0,0V141.88A0,0,0,0,1,0,141.88Z" style="fill:#ff5c62"/><path d="M26.3,176.65a204.82,204.82,0,0,0,5.18-34.77H19.06C17.73,156.54,10.91,171.19,0,180.55V205C12.13,200,22.27,192.28,26.3,176.65Z" style="fill:#374dff;opacity:0.1"/><path d="M40.27,141.88H31.48a204.82,204.82,0,0,1-5.18,34.77C22.27,192.28,12.13,200,0,205V216.8H11.53a30.74,30.74,0,0,0,30.74-30.75V143.88A2,2,0,0,0,40.27,141.88Z" style="fill:#374dff;opacity:0.2"/><path d="M48.59,157.23a2,2,0,0,0,1.61,2,8.53,8.53,0,0,1,0,16.75,2,2,0,0,0-1.61,2v5.8a2,2,0,0,0,2.29,2,18.26,18.26,0,0,0,0-36.24,2,2,0,0,0-2.29,2Z" style="fill:#374dff"/><path d="M0,95.36H19.86a2,2,0,0,1,2,2v18.9a2,2,0,0,1-2,2H0a0,0,0,0,1,0,0V95.36A0,0,0,0,1,0,95.36Z" style="fill:#374dff;opacity:0.1"/><circle cx="66.57" cy="71.94" r="19.94" style="fill:#ff5c62;opacity:0.2"/><path d="M28.29,20,19.16,35.82a2,2,0,0,0,1.73,3H39.15a2,2,0,0,0,1.73-3L31.75,20A2,2,0,0,0,28.29,20Z" style="fill:#ff5c62;opacity:0.2"/><path d="M0,86.36H12.86a2,2,0,0,1,2,2v18.9a2,2,0,0,1-2,2H0a0,0,0,0,1,0,0V86.36A0,0,0,0,1,0,86.36Z" style="fill:#374dff"/><circle cx="59.57" cy="62.94" r="19.94" style="fill:#fff"/><path d="M20.29,16,11.16,31.82a2,2,0,0,0,1.73,3H31.15a2,2,0,0,0,1.73-3L23.75,16A2,2,0,0,0,20.29,16Z" style="fill:#ff5c62"/><path d="M131.94,59.27h88.22a2,2,0,0,1,2,2v82.1a0,0,0,0,1,0,0H129.94a0,0,0,0,1,0,0V61.27A2,2,0,0,1,131.94,59.27Z" style="fill:#ffd435"/><polyline points="141.53 77.24 141.53 71.12 162.71 71.12 162.71 77.24" style="fill:none;stroke:#374dff;stroke-linecap:round;stroke-linejoin:round;stroke-width:4px"/><line x1="156.12" y1="91.99" x2="148.12" y2="91.99" style="fill:none;stroke:#374dff;stroke-linecap:round;stroke-linejoin:round;stroke-width:4px"/><line x1="152.12" y1="91.99" x2="152.12" y2="71.12" style="fill:none;stroke:#374dff;stroke-linecap:round;stroke-linejoin:round;stroke-width:4px"/><line x1="175.04" y1="71.12" x2="212.34" y2="71.12" style="fill:none;stroke:#374dff;stroke-linecap:round;stroke-linejoin:round;stroke-width:4px"/><line x1="175.04" y1="81.56" x2="190.47" y2="81.56" style="fill:none;stroke:#374dff;stroke-linecap:round;stroke-linejoin:round;stroke-width:4px"/><line x1="175.04" y1="91.99" x2="202.96" y2="91.99" style="fill:none;stroke:#374dff;stroke-linecap:round;stroke-linejoin:round;stroke-width:4px"/><line x1="141.53" y1="102.42" x2="196.01" y2="102.42" style="fill:none;stroke:#374dff;stroke-linecap:round;stroke-linejoin:round;stroke-width:4px"/><line x1="141.53" y1="112.85" x2="171.45" y2="112.85" style="fill:none;stroke:#374dff;stroke-linecap:round;stroke-linejoin:round;stroke-width:4px"/><line x1="181.62" y1="112.85" x2="201.75" y2="112.85" style="fill:none;stroke:#374dff;stroke-linecap:round;stroke-linejoin:round;stroke-width:4px"/><line x1="141.53" y1="123.28" x2="193.16" y2="123.28" style="fill:none;stroke:#374dff;stroke-linecap:round;stroke-linejoin:round;stroke-width:4px"/><line x1="141.53" y1="133.72" x2="166.71" y2="133.72" style="fill:none;stroke:#374dff;stroke-linecap:round;stroke-linejoin:round;stroke-width:4px"/><path d="M100.78,279.93a2,2,0,0,1-1.41-3.42l2.08-2.08c3.89-3.89,5.43-12.4,4.16-17.12-.39-1.46-.89-1.9-1.06-1.94s-.92.1-2.18,1.37L82,277.11a2,2,0,0,1-2.83-2.83l20.37-20.37c2.11-2.11,4.14-2.92,6-2.41,1.28.35,3,1.45,3.89,4.77,1.58,5.89-.17,16-5.2,21l-2.08,2.08A2,2,0,0,1,100.78,279.93Z" style="fill:#374dff"/><path d="M97.58,294a9.32,9.32,0,0,1,10,0h4.62a1.76,1.76,0,0,0-.52-1.26,12.9,12.9,0,0,0-18.25,0A1.76,1.76,0,0,0,93,294Z" style="fill:#374dff"/><path d="M56.92,294a18.91,18.91,0,1,1,37.82,0Z" style="fill:#fff"/><path d="M192.49,256.27c-.89-3.32-2.61-4.42-3.89-4.77-1.91-.51-3.94.3-6,2.41l-38.68,38.68a2,2,0,0,0-.58,1.41h4.82l37.27-37.26c1.26-1.27,2-1.41,2.18-1.37s.67.48,1.06,1.94c1.27,4.72-.27,13.23-4.16,17.12l-2.08,2.08a2,2,0,0,0,2.83,2.83l2.08-2.08C192.32,272.23,194.06,262.16,192.49,256.27Z" style="fill:#374dff"/><path d="M110.47,294a18.91,18.91,0,1,1,37.82,0Z" style="fill:#fff"/><path d="M56.92,294H71.41c-3.34-4.08-6.71-8.13-10.11-12.09A18.83,18.83,0,0,0,56.92,294Z" style="fill:#374dff;opacity:0.1"/><path d="M94.74,294a18.91,18.91,0,0,0-18.91-18.91c-.42,0-.83,0-1.25.05C80.35,281.19,86,287.45,91.11,294Z" style="fill:#374dff;opacity:0.1"/><path d="M148.29,294a18.89,18.89,0,0,0-18-18.86A242.43,242.43,0,0,1,145.78,294Z" style="fill:#374dff;opacity:0.1"/><path d="M113.13,284.36a102.71,102.71,0,0,0,6.56,9.64h10.06c-3.82-5-7.8-10-11.8-15.05A19.19,19.19,0,0,0,113.13,284.36Z" style="fill:#374dff;opacity:0.1"/></svg>