<svg width="48px" height="48px" viewBox="0 0 48 48" version="1.1" xmlns="http://www.w3.org/2000/svg" xmlns:xlink="http://www.w3.org/1999/xlink">
    <defs>
        <path d="M27.8965087,16.8076923 L30.9615385,16.8076923 C32.4272172,16.8076923 33.6153846,17.9958597 33.6153846,19.4615385 L33.6153846,29.1923077 C33.6153846,30.6579865 32.4272172,31.8461538 30.9615385,31.8461538 L15.0384615,31.8461538 C13.5727828,31.8461538 12.3846154,30.6579865 12.3846154,29.1923077 L12.3846154,19.4615385 C12.3846154,17.9958597 13.5727828,16.8076923 15.0384615,16.8076923 L18.1034913,16.8076923 L19.6101094,14.5477652 C19.7741752,14.3016664 20.0503799,14.1538462 20.3461538,14.1538462 L25.6538462,14.1538462 C25.9496201,14.1538462 26.2258248,14.3016664 26.3898906,14.5477652 L27.8965087,16.8076923 Z M20.8195856,15.9230769 L19.3129676,18.183004 C19.1489017,18.4291028 18.8726971,18.5769231 18.5769231,18.5769231 L15.0384615,18.5769231 C14.549902,18.5769231 14.1538462,18.9729789 14.1538462,19.4615385 L14.1538462,29.1923077 C14.1538462,29.6808673 14.549902,30.0769231 15.0384615,30.0769231 L30.9615385,30.0769231 C31.450098,30.0769231 31.8461538,29.6808673 31.8461538,29.1923077 L31.8461538,19.4615385 C31.8461538,18.9729789 31.450098,18.5769231 30.9615385,18.5769231 L27.4230769,18.5769231 C27.1273029,18.5769231 26.8510983,18.4291028 26.6870324,18.183004 L25.1804144,15.9230769 L20.8195856,15.9230769 Z M23,28.3076923 C20.5572021,28.3076923 18.5769231,26.3274133 18.5769231,23.8846154 C18.5769231,21.4418175 20.5572021,19.4615385 23,19.4615385 C25.4427979,19.4615385 27.4230769,21.4418175 27.4230769,23.8846154 C27.4230769,26.3274133 25.4427979,28.3076923 23,28.3076923 Z M23,26.5384615 C24.4656788,26.5384615 25.6538462,25.3502941 25.6538462,23.8846154 C25.6538462,22.4189366 24.4656788,21.2307692 23,21.2307692 C21.5343212,21.2307692 20.3461538,22.4189366 20.3461538,23.8846154 C20.3461538,25.3502941 21.5343212,26.5384615 23,26.5384615 Z" id="path-1"></path>
    </defs>
    <g id="Responsive-&amp;-Guides" stroke="none" stroke-width="1" fill="none" fill-rule="evenodd">
        <g id="iPhone-8" transform="translate(-164.000000, -670.000000)">
            <g id="camera" transform="translate(165.000000, 671.000000)">
                <circle id="Oval-5" stroke="#2524FF" stroke-width="2" cx="23" cy="23" r="23"></circle>
                <mask id="mask-2" fill="white">
                    <use xlink:href="#path-1"></use>
                </mask>
                <use id="Combined-Shape" fill="#2524FF" fill-rule="nonzero" xlink:href="#path-1"></use>
            </g>
        </g>
    </g>
</svg>