<svg width="135px" height="37px" viewBox="0 0 135 37" version="1.1" xmlns="http://www.w3.org/2000/svg" xmlns:xlink="http://www.w3.org/1999/xlink">
    <g id="Responsive-&amp;-Guides" stroke="none" stroke-width="1" fill="none" fill-rule="evenodd">
        <g id="iPhone-8" transform="translate(-120.000000, -4445.000000)" fill="#2524FF">
            <g id="Download-app" transform="translate(36.000000, 4238.000000)">
                <g id="google-play" transform="translate(52.000000, 200.000000)">
                    <g id="Group-13" transform="translate(31.967871, 7.171875)">
                        <g id="google-play" transform="translate(0.528395, 4.138993)" stroke="#EFF7FF" stroke-width="0.76">
                            <path d="M0.931442796,0.607876713 C0.512021186,0.741453603 0.240592718,1.17376895 0.240592718,1.8278351 L0.243177751,22.4131524 C0.243177751,23.0599804 0.506204862,23.4857156 0.913993823,23.6278467 L12.2267446,12.1086495 L0.931442796,0.607876713" id="left"></path>
                            <path d="M0.913993823,23.6278467 C1.20739507,23.7291809 1.57511602,23.6818039 1.97579614,23.458079 L15.7811651,15.7277278 L12.2267446,12.1086495 L0.913993823,23.6278467" id="bottom"></path>
                            <path d="M15.7831038,15.7277278 L20.490449,13.0923808 C21.4449725,12.5560992 21.4449725,11.6835723 20.490449,11.1486067 L15.7656549,8.50338951 L12.2267446,12.1066755 L15.7831038,15.7277278" id="right"></path>
                            <path d="M15.7650086,8.50338951 L1.97579614,0.783566514 C1.5848099,0.565763802 1.22419779,0.515096706 0.932089055,0.607876713 L12.2267446,12.1066755 L15.7650086,8.50338951" id="top"></path>
                        </g>
                        <path d="M47.5694806,29.3034936 L44.6458083,29.9851963 C43.4612169,30.1753625 42.3974758,30.3424981 41.2710476,30.3424981 C35.6317981,30.3424981 33.4829894,26.1160726 33.4829894,22.8082351 C33.4829894,18.7686857 36.527512,15.0232687 41.7415237,15.0232687 C42.8446865,15.0232687 43.9058426,15.1884302 44.8726449,15.4569001 C46.4049232,15.8951375 47.1216237,16.4353672 47.5694806,16.7518721 L45.8711139,18.3942756 L45.1550598,18.5574631 L45.6656038,17.7290232 C44.9741075,17.0413983 43.7029175,15.7720889 41.2904354,15.7720889 C38.0649604,15.7720889 35.6317981,18.2685949 35.6317981,21.9133357 C35.6317981,25.8278624 38.4100623,29.5101101 42.866013,29.5101101 C44.1753323,29.5101101 44.8493796,29.2422983 45.4613862,28.9922529 L45.4613862,25.6363803 L42.3742105,25.8054899 L44.0105364,24.9105906 L48.3430518,24.9105906 L47.81312,25.4297638 C47.6702969,25.5534705 47.6509092,25.5955834 47.6108412,25.761403 C47.5895146,25.9509111 47.5694806,26.5536521 47.5694806,26.7655327 L47.5694806,29.3034936 Z M54.2744101,30.0740283 C50.8072345,30.0740283 48.9557046,27.3255028 48.9557046,24.836893 C48.9557046,21.9291281 51.2880507,19.4411762 54.6033555,19.4411762 C57.807504,19.4411762 59.8134896,21.9969035 59.8134896,24.6802856 C59.8134896,27.3011563 57.8314155,30.0740283 54.2744101,30.0740283 Z M57.0022662,28.2776494 C57.5257354,27.566994 57.6562795,26.6799908 57.6562795,25.8153601 C57.6562795,23.8597418 56.7385928,20.1301171 54.036587,20.1301171 C53.3147166,20.1301171 52.5980161,20.4163533 52.074547,20.8835434 C51.2214861,21.6606583 51.0702616,22.6371514 51.0702616,23.5952201 C51.0702616,25.7890396 52.139819,29.4074598 54.7784915,29.4074598 C55.6296136,29.4074598 56.498831,28.9869887 57.0022662,28.2776494 Z M65.8805621,30.0740283 C62.4140328,30.0740283 60.5592716,27.3255028 60.5592716,24.836893 C60.5592716,21.9291281 62.8909714,19.4411762 66.2075688,19.4411762 C69.413656,19.4411762 71.4215805,21.9969035 71.4215805,24.6802856 C71.4215805,27.3011563 69.4369213,30.0740283 65.8805621,30.0740283 Z M68.607772,28.2776494 C69.1351187,27.566994 69.2630779,26.6799908 69.2630779,25.8153601 C69.2630779,23.8597418 68.3479762,20.1301171 65.6433854,20.1301171 C64.9240999,20.1301171 64.1996444,20.4163533 63.6774677,20.8835434 C62.8256993,21.6606583 62.6738287,22.6371514 62.6738287,23.5952201 C62.6738287,25.7890396 63.7388623,29.4074598 66.3820585,29.4074598 C67.2351195,29.4074598 68.1056293,28.9869887 68.607772,28.2776494 Z M79.4015774,20.5308478 C79.9024276,20.9500029 80.9474272,21.8396381 80.9474272,23.5267866 C80.9474272,25.1711642 80.0368493,25.946305 79.1185163,26.6799908 C78.8367477,26.9688591 78.507156,27.2820739 78.507156,27.7663723 C78.507156,28.257909 78.8367477,28.5244047 79.0739245,28.723125 L79.8617133,29.3423164 C80.8194681,30.1654922 81.692563,30.9202346 81.692563,32.4534077 C81.692563,34.5419449 79.7072576,36.6482485 75.9557284,36.6482485 C72.7955255,36.6482485 71.267771,35.1157333 71.267771,33.4726718 C71.267771,32.6731845 71.6587572,31.540742 72.9486887,30.7649432 C74.300661,29.923343 76.1321569,29.8108226 77.1131769,29.7450211 C76.8068505,29.3423164 76.4572248,28.9205293 76.4572248,28.2322464 C76.4572248,27.8558623 76.5683812,27.6314794 76.6756601,27.3669577 C76.4371908,27.3899882 76.1967827,27.4136767 75.9783474,27.4136767 C73.6653891,27.4136767 72.3580087,25.6567787 72.3580087,23.9255433 C72.3580087,22.9043052 72.8155595,21.7712046 73.755219,20.9500029 C74.9986199,19.9077083 76.4811364,19.7280705 77.6592652,19.7280705 L82.1533451,19.7280705 L80.7561347,20.5308478 L79.4015774,20.5308478 Z M77.8563739,30.3885591 C77.6773604,30.3648706 77.5700815,30.3648706 77.3542313,30.3648706 C77.1564762,30.3648706 75.9783474,30.4082995 75.0658308,30.7201982 C74.5830759,30.8998361 73.1878043,31.4308536 73.1878043,33.0081137 C73.1878043,34.5820838 74.6942323,35.7171583 77.0246396,35.7171583 C79.1185163,35.7171583 80.2300805,34.6952622 80.2300805,33.3193545 C80.2300805,32.186912 79.5107951,31.589435 77.8563739,30.3885591 Z M78.4832444,26.1693718 C78.9873259,25.6567787 79.0312715,24.9487554 79.0312715,24.5467087 C79.0312715,22.9497081 78.0961358,20.4624143 76.2833813,20.4624143 C75.7179054,20.4624143 75.1052525,20.7512826 74.7575656,21.1980743 C74.3885521,21.6606583 74.278042,22.2607672 74.278042,22.8378457 C74.278042,24.3249579 75.1298103,26.7911952 77.003313,26.7911952 C77.5500475,26.7911952 78.1381425,26.5207514 78.4832444,26.1693718 Z M85.3620174,28.1243321 C85.3620174,28.9869887 85.5132418,29.1212236 86.2299422,29.1889991 C86.6034795,29.2337441 86.9757242,29.2534845 87.3440914,29.2982295 L86.5375611,29.7871341 L82.6942633,29.7871341 C83.1983447,29.1212236 83.2849433,29.0547642 83.2849433,28.6112626 L83.2849433,28.1157779 L83.276542,14.9133803 L81.5794678,14.9133803 L83.2132086,14.111919 L86.332051,14.111919 C85.6560649,14.5106756 85.453786,14.7534828 85.3671874,15.5305976 L85.3620174,28.1243321 Z M96.0815031,28.2960738 L95.0384423,29.2982295 C94.7973879,29.4331224 94.5576261,29.5897298 94.3185106,29.7009342 C93.5940551,30.0358634 92.8573206,30.1200893 92.202661,30.1200893 C91.5059946,30.1200893 90.4138182,30.0740283 89.2996689,29.2534845 C87.7518804,28.1434145 87.075248,26.2351732 87.075248,24.5723712 C87.075248,21.1296408 89.8276619,19.4411762 92.0727631,19.4411762 C92.8573206,19.4411762 93.6632047,19.6412126 94.3185106,20.0629997 C95.408102,20.7966856 95.6898706,21.7501482 95.8462651,22.2607672 L90.7194983,24.3697029 L89.0405194,24.5026217 C89.5840226,27.3255028 91.459464,28.9672483 93.5320143,28.9672483 C94.56732,28.9672483 95.3357211,28.6231069 96.0407888,28.2684372 C96.0407888,28.2684372 96.1823194,28.1934236 96.0815031,28.2960738 Z M92.9885111,22.6812383 C93.4047014,22.527263 93.6211979,22.3943441 93.6211979,22.0850774 C93.6211979,21.1980743 92.6356541,20.1735461 91.459464,20.1735461 C90.5883079,20.1735461 88.9526282,20.864461 88.9526282,23.2635809 C88.9526282,23.637991 88.9965738,24.0367477 89.0185466,24.4355043 L92.9885111,22.6812383 Z M102.367657,28.3908278 L102.367657,34.0464602 L101.264494,34.0464602 L101.264494,19.6550309 L102.367657,19.6550309 L102.367657,21.2941443 C103.086296,20.2347414 104.399493,19.3951152 105.924663,19.3951152 C108.660274,19.3951152 110.502756,21.507999 110.502756,24.8526853 C110.502756,28.1749992 108.660274,30.3319698 105.924663,30.3319698 C104.484799,30.3319698 103.194868,29.5759115 102.367657,28.3908278 Z M109.317518,24.8526853 C109.317518,22.3318328 108.026941,20.4091152 105.73854,20.4091152 C104.317418,20.4091152 102.958337,21.5461638 102.367657,22.5377912 L102.367657,27.1445489 C102.958337,28.1381504 104.317418,29.3166539 105.73854,29.3166539 C108.026941,29.3166539 109.317518,27.3774859 109.317518,24.8526853 Z M112.009184,15.6812829 L113.111701,15.6812829 L113.111701,30.0727122 L112.009184,30.0727122 L112.009184,15.6812829 Z M122.267888,30.0417856 C122.194214,29.6805357 122.138636,29.3620569 122.097922,29.0962191 C122.064316,28.8310394 122.044929,28.5599375 122.044929,28.2842295 C121.666868,28.8494638 121.131119,29.3199439 120.446732,29.690406 C119.761698,30.0635 119.110916,30.246428 118.218434,30.246428 C117.143706,30.246428 116.309387,29.9773002 115.714183,29.4311484 C115.120918,28.8856546 114.822346,28.1467046 114.822346,27.2116663 C114.822346,26.2779441 115.254693,25.5199117 116.116802,24.9402012 C116.97891,24.3578586 118.093059,24.0683323 119.472175,24.0683323 L122.044929,24.0683323 L122.044929,22.7740183 C122.044929,22.0284882 121.795473,21.4421975 121.297208,21.0171203 C120.797004,20.5913851 120.095167,20.3762145 119.185236,20.3762145 C118.353501,20.3762145 117.678808,20.5729607 117.165033,20.955925 C116.655781,21.3467855 116.399217,21.8310839 116.399217,22.4147426 L115.270203,22.4147426 L115.246938,22.3588114 C115.206224,21.5718263 115.559727,20.8815694 116.311325,20.2854085 C117.059692,19.6899056 118.040066,19.3905091 119.24663,19.3905091 C120.449317,19.3905091 121.422582,19.6852995 122.156085,20.2735643 C122.888942,20.8559068 123.256663,21.6975071 123.256663,22.7977069 L123.256663,27.936798 C123.256663,28.305944 123.274112,28.6625877 123.31935,29.0100192 C123.365881,29.3581088 123.4402,29.7055403 123.539078,30.0417856 L122.267888,30.0417856 Z M118.353501,29.2232159 C119.290576,29.2232159 119.963977,29.0100192 120.652242,28.5882321 C121.335983,28.1690771 121.801289,27.6222672 122.044929,26.9603049 L122.044929,24.9599416 L119.459896,24.9599416 C118.472413,24.9599416 117.654896,25.1823504 117.011869,25.6311161 C116.36755,26.0785658 116.041189,26.6201115 116.041189,27.2498312 C116.041189,27.844018 116.247992,28.3191043 116.659012,28.6790381 C117.071325,29.04292 117.634862,29.2232159 118.353501,29.2232159 Z M125.490131,33.1160281 C125.726016,33.2232844 126.128635,33.2890858 126.383907,33.2890858 C127.0586,33.2890858 127.52843,33.0081137 127.950437,32.0158283 L128.755028,30.1595701 L124.409588,19.6550309 L125.640063,19.6550309 L129.367681,28.7579998 L133.059108,19.6550309 L134.307033,19.6550309 L129.007069,32.3639178 C128.457103,33.6733661 127.591763,34.3030857 126.403294,34.3030857 C126.04656,34.3030857 125.576084,34.2386003 125.300778,34.1524005 L125.490131,33.1160281 Z" id="logotype"></path>
                        <path d="M33.4007484,3.81527759 C33.4007484,1.58041189 35.0451925,0.142810099 37.0907045,0.142810099 C38.4611844,0.142810099 39.3568368,0.803096214 39.915961,1.61166411 L38.9142792,2.19747686 C38.534944,1.66485936 37.870449,1.25060131 37.0907045,1.25060131 C35.6998091,1.25060131 34.6658574,2.31450643 34.6658574,3.81527759 C34.6658574,5.2941057 35.6998091,6.37995387 37.0907045,6.37995387 C37.807885,6.37995387 38.4401103,6.05014328 38.7562229,5.74161079 L38.7562229,4.64512358 L36.6481469,4.64512358 L36.6481469,3.54863637 L39.9791835,3.54863637 L39.9791835,6.19909 C39.2942729,6.97640567 38.3031281,7.49771918 37.0907045,7.49771918 C35.0451925,7.49771918 33.4007484,6.04016917 33.4007484,3.81527759 Z M41.5044269,7.35941152 L41.5044269,0.259839662 L46.3218514,0.259839662 L46.3218514,1.35699182 L42.7372661,1.35699182 L42.7372661,3.18690862 L46.2480918,3.18690862 L46.2480918,4.28339584 L42.7372661,4.28339584 L42.7372661,6.2629243 L46.3218514,6.2629243 L46.3218514,7.35941152 L41.5044269,7.35941152 Z M49.7345504,7.35941152 L49.7345504,1.35699182 L47.6054003,1.35699182 L47.6054003,0.259839662 L53.0971983,0.259839662 L53.0971983,1.35699182 L50.9680482,1.35699182 L50.9680482,7.35941152 L49.7345504,7.35941152 Z M57.3838171,0.259839662 L58.6166562,0.259839662 L58.6166562,7.35941152 L57.3838171,7.35941152 L57.3838171,0.259839662 Z M62.0517466,7.35941152 L62.0517466,1.35699182 L59.9225965,1.35699182 L59.9225965,0.259839662 L65.4143945,0.259839662 L65.4143945,1.35699182 L63.2852444,1.35699182 L63.2852444,7.35941152 L62.0517466,7.35941152 Z M69.3954377,3.81527759 C69.3954377,1.69677652 70.881167,0.142810099 72.9905601,0.142810099 C75.0874404,0.142810099 76.5850239,1.69677652 76.5850239,3.81527759 C76.5850239,5.93311372 75.0874404,7.48708013 72.9905601,7.48708013 C70.881167,7.48708013 69.3954377,5.93311372 69.3954377,3.81527759 Z M75.3199149,3.81527759 C75.3199149,2.34642358 74.4025298,1.25060131 72.9905601,1.25060131 C71.5667362,1.25060131 70.6605467,2.34642358 70.6605467,3.81527759 C70.6605467,5.2728276 71.5667362,6.37995387 72.9905601,6.37995387 C74.4025298,6.37995387 75.3199149,5.2728276 75.3199149,3.81527759 Z M82.9270332,7.35941152 L79.2581512,2.28258927 L79.2581512,7.35941152 L78.025312,7.35941152 L78.025312,0.259839662 L79.290421,0.259839662 L82.8848848,5.17774108 L82.8848848,0.259839662 L84.1183826,0.259839662 L84.1183826,7.35941152 L82.9270332,7.35941152 Z" id="get-it-on"></path>
                    </g>
                </g>
            </g>
        </g>
    </g>
</svg>