<svg width="19px" height="19px" viewBox="0 0 19 19" version="1.1" xmlns="http://www.w3.org/2000/svg" xmlns:xlink="http://www.w3.org/1999/xlink">
    <defs>
        <path d="M7.26653332,11.5240842 L6.49520527,9.28397746 L4.99496951,9.80026123 C4.58112013,9.94268132 4.13014253,9.72273766 3.98768284,9.30900331 C3.84522315,8.89526896 4.06522796,8.4444167 4.47907734,8.30199661 L5.97931309,7.78571284 L5.46172257,6.28251583 C5.31926288,5.86878148 5.53926769,5.41792922 5.95311707,5.27550913 C6.36696645,5.13308904 6.81794405,5.3530327 6.96040375,5.76676705 L7.47799427,7.26996406 L9.71872382,6.49885039 L9.20229651,4.99903162 C9.05983682,4.58529726 9.27984163,4.13444501 9.69369101,3.99202491 C10.1075404,3.84960482 10.558518,4.06954848 10.7009777,4.48328283 L11.217405,5.9831016 L12.7210199,5.46565494 C13.1348693,5.32323485 13.5858469,5.54317851 13.7283066,5.95691286 C13.8707663,6.37064721 13.6507615,6.82149947 13.2369121,6.96391956 L11.7332972,7.48136622 L12.5046252,9.72147297 L14.004861,9.20518921 C14.4187104,9.06276911 14.869688,9.28271277 15.0121477,9.69644712 C15.1546073,10.1101815 14.9346025,10.5610337 14.5207532,10.7034538 L13.0205174,11.2197376 L13.5381079,12.7229346 C13.6805676,13.136669 13.4605628,13.5875212 13.0467134,13.7299413 C12.632864,13.8723614 12.1818864,13.6524177 12.0394267,13.2386834 L11.5218362,11.7354864 L9.28110667,12.5066 L9.79753398,14.0064188 C9.93999367,14.4201532 9.71998886,14.8710054 9.30613948,15.0134255 C8.8922901,15.1558456 8.4413125,14.935902 8.29885281,14.5221676 L7.7824255,13.0223488 L6.27881057,13.5397955 C5.86496119,13.6822156 5.41398358,13.4622719 5.27152389,13.0485376 C5.1290642,12.6348032 5.34906902,12.183951 5.7629184,12.0415309 L7.26653332,11.5240842 Z M8.7652145,11.0083354 L11.0059441,10.2372218 L10.234616,7.99711501 L7.99388644,8.76822868 L8.7652145,11.0083354 Z M18.2476869,6.8988866 C20.1684277,13.2769574 18.5139898,16.318836 12.1059669,18.2474884 C5.72468477,20.1680925 2.68193336,18.5141292 0.752727526,12.1079445 C-1.16842769,5.72849299 0.486010229,2.68661445 6.89403314,0.75796203 C13.2935102,-1.16811831 16.3244448,0.470155444 18.2476869,6.8988866 Z M16.7294095,7.35429926 C15.056557,1.76248805 12.9098208,0.602128822 7.35089198,2.27524036 C1.77771728,3.9526396 0.602671676,6.1131183 2.27042098,11.6511512 C3.94828657,17.2227768 6.10936594,18.3974958 11.6489385,16.7302101 C17.2221132,15.0528108 18.3971588,12.8923321 16.7294095,7.35429926 Z" id="path-1"></path>
    </defs>
    <g id="Responsive-&amp;-Guides" stroke="none" stroke-width="1" fill="none" fill-rule="evenodd">
        <g id="iPhone-8" transform="translate(-111.000000, -3540.000000)">
            <g id="Technology-Matters" transform="translate(36.000000, 3190.000000)">
                <g id="slack" transform="translate(35.000000, 335.000000)">
                    <g transform="translate(40.000000, 15.000000)">
                        <mask id="mask-2" fill="white">
                            <use xlink:href="#path-1"></use>
                        </mask>
                        <use id="Combined-Shape" fill="#2524FF" fill-rule="nonzero" xlink:href="#path-1"></use>
                    </g>
                </g>
            </g>
        </g>
    </g>
</svg>