<svg id="23360d3d-9d9b-4b2a-8a09-208ce342bc65" data-name="Layer 1" xmlns="http://www.w3.org/2000/svg" viewBox="0 0 3114 1200"><defs><style>.b02038bd-bdfe-41f9-99a9-c7793b4d38f5{fill:none;}.bd3f09c8-9d41-40ce-8e01-0b27b5dd96ae{fill:#ffce00;}.\34 2c3fb31-bff3-4811-8b63-f814315c9d2e{fill:#ffb6d5;}.\35 dc59caf-1c2f-44cb-933f-a63d60893003{fill:#2935ff;}.b9fa8603-cf94-4311-a7de-b8151272b40c{fill:#ff1c3f;}</style></defs><title>logo-full</title><path class="b02038bd-bdfe-41f9-99a9-c7793b4d38f5" d="M11.25,1200.77V830.66h0V374.79h0V.77H3103.41v374h0V830.66h0v370.11Z"/><polygon class="bd3f09c8-9d41-40ce-8e01-0b27b5dd96ae" points="437.12 774.91 669.3 774.91 437.12 542.73 437.12 774.91"/><polygon class="bd3f09c8-9d41-40ce-8e01-0b27b5dd96ae" points="785.39 658.82 785.39 891 1017.57 658.82 785.39 658.82"/><polyline class="bd3f09c8-9d41-40ce-8e01-0b27b5dd96ae" points="437.12 426.64 553.21 426.64 553.21 310.55"/><path class="42c3fb31-bff3-4811-8b63-f814315c9d2e" d="M321,774.91V891H437.12V774.91ZM437.12,891H553.21L669.3,774.91H553.21ZM785.39,542.73H669.3V658.82H785.39Zm0,348.27V774.91L669.3,658.82V774.91ZM669.3,426.64V310.55H553.21V426.64ZM553.21,310.55H437.12L321,426.64H437.12Z"/><path class="5dc59caf-1c2f-44cb-933f-a63d60893003" d="M437.12,1007.09,553.21,891H321Zm0-464.36L204.94,774.91H437.12Zm232.18,0L553.21,658.82,669.3,774.91Zm348.27,116.09L785.39,426.64V658.82ZM553.21,194.46,437.12,310.55H669.3Zm0,464.36L785.39,426.64H553.21Z"/><path class="b9fa8603-cf94-4311-a7de-b8151272b40c" d="M437.12,891,553.21,774.91H437.12ZM321,891V774.91H204.94ZM785.39,774.91V658.82H669.3ZM669.3,542.73H785.39V426.64Zm0-116.09H785.39L669.3,310.55ZM553.21,658.82V426.64H321Z"/><path class="5dc59caf-1c2f-44cb-933f-a63d60893003" d="M1338,411.83h-73.58v96.85H1204v61.63h60.37V818.7H1338V570.31h59.74V508.68H1338Zm242.73,87.42c-94.33,0-156,67.28-156,164.76,0,98.1,62.89,162.86,154.69,162.86,64.16,0,118.24-32.06,141.5-86.78l-62.24-24.53c-13.85,28.94-40.25,47.17-79.26,47.17-41.49,0-79.23-20.75-84.26-71.69h237.71V663.38C1732.87,564,1672.5,499.25,1580.69,499.25Zm-84.27,139.6c6.29-50.31,37.1-77.35,82.37-77.35,44.66,0,75.48,25.15,78.63,77.35Zm465.06-130.17-66.65,106.9c-23.28-37.1-47.18-74.83-70.43-106.9h-88.06l111.31,157.83L1739.49,818.7h84.28l65.39-103.14c20.12,32.08,46.54,73.58,67.91,103.14h87.42L1937,665.88l110-157.2ZM2350.07,354c-26.41,0-46.53,20.75-46.53,47.16s20.12,47.17,46.53,47.17a47.17,47.17,0,0,0,0-94.33ZM2200.4,411.83h-73v96.85h-60.37v61.63h60.37V818.7h73V570.31h111.94V818.7h74.19v-310H2200.4ZM2468.27,818.7h74.21V351.46h-74.21Zm441.45-155.32c0-99.36-60.37-164.13-152.18-164.13-94.32,0-155.95,67.28-155.95,164.76,0,98.1,62.89,162.86,154.69,162.86,64.15,0,118.23-32.06,141.49-86.78l-62.24-24.53c-13.85,28.94-40.25,47.17-79.25,47.17C2714.79,762.73,2677,742,2672,691h237.7Zm-236.44-24.53c6.28-50.31,37.1-77.35,82.37-77.35,44.65,0,75.47,25.15,78.62,77.35Z"/></svg>