<?xml version="1.0" standalone="no"?>
<!DOCTYPE svg PUBLIC "-//W3C//DTD SVG 20010904//EN"
 "http://www.w3.org/TR/2001/REC-SVG-20010904/DTD/svg10.dtd">
<svg version="1.0" xmlns="http://www.w3.org/2000/svg"
 width="1200.000000pt" height="1200.000000pt" viewBox="0 0 1200.000000 1200.000000"
 preserveAspectRatio="xMidYMid meet">
<metadata>
Created by potrace 1.11, written by Peter Selinger 2001-2013
</metadata>
<g transform="translate(0.000000,1200.000000) scale(0.100000,-0.100000)"
fill="#000000" stroke="none">
<path d="M3435 10273 l-1706 -1706 848 -849 c466 -466 849 -852 851 -857 2 -5
-765 -776 -1702 -1714 l-1706 -1705 854 -854 c469 -469 1238 -1238 1709 -1710
l857 -856 1708 1708 1709 1709 854 -855 854 -854 1710 1710 1710 1710 -3410
3413 c-1876 1878 -3415 3414 -3421 3415 -7 1 -780 -766 -1719 -1705z"/>
</g>
</svg>
