<svg width="1832" height="4992" xmlns="http://www.w3.org/2000/svg" xmlns:xlink="http://www.w3.org/1999/xlink"><defs><path id="a" d="M0 0h1832v4992H0z"/><linearGradient x1="43.397%" y1="38.826%" x2="43.397%" y2="100%" id="c"><stop stop-color="#EDF5FF" offset="0%"/><stop stop-color="#F6F8FF" stop-opacity=".5" offset="100%"/></linearGradient><linearGradient x1="20.775%" y1="32.808%" x2="71.145%" y2="32.808%" id="d"><stop stop-color="#F8FCFF" stop-opacity=".5" offset="0%"/><stop stop-color="#EFF7FF" offset="100%"/></linearGradient><linearGradient x1="76.292%" y1="70.64%" x2="50%" y2="11.586%" id="e"><stop stop-color="#EDF5FF" offset="0%"/><stop stop-color="#F6F8FF" stop-opacity=".5" offset="100%"/></linearGradient></defs><g fill="none" fill-rule="evenodd"><mask id="b" fill="#fff"><use xlink:href="#a"/></mask><use fill="#FFF" xlink:href="#a"/><g mask="url(#b)"><path d="M645 1158s678.795 67.351 673.186 701.565c-5.61 634.214 1004.165 679.116 622.695 1071.99-381.474 392.88-1161.242 117.862-1161.242 117.862L645 1158z" fill="url(#c)" transform="translate(-815 -88)"/><path d="M504.433 3506.741s-23.255 174.426 467.798 676.266c491.052 501.84 927.958 275.455 1095.48 726.079 167.52 450.628 102.93 861.993 463.193 823.398 360.263-38.595 147.963-2367.267 147.963-2367.267L1701.014 3243 498 3352.357l6.433 154.384z" fill="url(#d)" transform="rotate(117 1238.963 4195.284)"/><path d="M549.433 263.741s-23.255 174.426 467.798 676.266c491.052 501.84 927.958 275.455 1095.48 726.079 167.52 450.628 102.93 861.993 463.193 823.398 360.263-38.595 147.963-2367.267 147.963-2367.267L1746.014 0 543 109.357l6.433 154.384z" fill="url(#e)" transform="translate(-815 -88)"/></g></g></svg>