<svg data-name="Layer 1" xmlns="http://www.w3.org/2000/svg" width="240" height="294"><path d="M4 0h236v294H4a4 4 0 0 1-4-4V4a4 4 0 0 1 4-4z" fill="#ffd435"/><path d="M0 99.93h240V294H4a4 4 0 0 1-4-4V99.93z" fill="#ffc0d8"/><path d="M0 207.49v18.31c16.35.49 31.78.78 48.16 1.06C34.37 215.25 18.13 208.41 0 207.49z" fill="#374dff" opacity=".2"/><path d="M48.16 226.86c-16.38-.28-31.81-.57-48.16-1.06v18.93c20.2.29 46.47 0 66.67.18l-13.26-13.25c-1.68-1.66-3.41-3.28-5.25-4.8zm39.31.3L99 238.71a20.57 20.57 0 0 0 14.57 6l126.41-.2V227z" fill="#374dff" opacity=".1"/><path fill="#374dff" opacity=".2" d="M240 226.96v-13.98H73.29l14.18 14.18 152.53-.2z"/><path d="M111.37 39.34H240V150H111.37a4 4 0 0 1-4-4V43.34a4 4 0 0 1 4-4z" fill="#fff"/><path d="M113.62 41.22H240V150H113.62a4 4 0 0 1-4-4V45.22a4 4 0 0 1 4-4z" fill="#374dff" opacity=".1"/><path d="M240 45.95v97.41H115a1 1 0 0 1-1-1V46.95a1 1 0 0 1 1-1h125z" fill="#ffc0d8"/><path d="M240 150H109.9a4.73 4.73 0 0 0-3.93 2.1l-36.46 54.5H240z" fill="#fff"/><path d="M240 150H109.9l56.62 56.63h-97v2.6a3.78 3.78 0 0 0 3.77 3.77H240v-6.4" fill="#ebedff"/><path d="M240 156.89v4.73H121.51a.94.94 0 0 1-.78-1.47l1.62-2.42a1.9 1.9 0 0 1 1.57-.84zm0 9.77v4.73H115a.94.94 0 0 1-.78-1.47l1.62-2.42a1.88 1.88 0 0 1 1.57-.84zm0 9.76v4.73H108.46a.94.94 0 0 1-.79-1.47l1.62-2.42a1.88 1.88 0 0 1 1.57-.84z" fill="#ffc0d8"/><path d="M0 141.88h40.27a2 2 0 0 1 2 2v42.17a30.74 30.74 0 0 1-30.74 30.75H0v-74.92z" fill="#ff5c62"/><path d="M26.3 176.65a204.82 204.82 0 0 0 5.18-34.77H19.06c-1.33 14.66-8.15 29.31-19.06 38.67V205c12.13-5 22.27-12.72 26.3-28.35z" fill="#374dff" opacity=".1"/><path d="M40.27 141.88h-8.79a204.82 204.82 0 0 1-5.18 34.77C22.27 192.28 12.13 200 0 205v11.8h11.53a30.74 30.74 0 0 0 30.74-30.75v-42.17a2 2 0 0 0-2-2z" fill="#374dff" opacity=".2"/><path d="M48.59 157.23a2 2 0 0 0 1.61 2 8.53 8.53 0 0 1 0 16.75 2 2 0 0 0-1.61 2v5.8a2 2 0 0 0 2.29 2 18.26 18.26 0 0 0 0-36.24 2 2 0 0 0-2.29 2z" fill="#374dff"/><path d="M0 95.36h19.86a2 2 0 0 1 2 2v18.9a2 2 0 0 1-2 2H0v-22.9z" fill="#374dff" opacity=".1"/><circle cx="66.57" cy="71.94" r="19.94" fill="#ff5c62" opacity=".2"/><path d="M28.29 20l-9.13 15.82a2 2 0 0 0 1.73 3h18.26a2 2 0 0 0 1.73-3L31.75 20a2 2 0 0 0-3.46 0z" fill="#ff5c62" opacity=".2"/><path d="M0 86.36h12.86a2 2 0 0 1 2 2v18.9a2 2 0 0 1-2 2H0v-22.9z" fill="#374dff"/><circle cx="59.57" cy="62.94" r="19.94" fill="#fff"/><path d="M20.29 16l-9.13 15.82a2 2 0 0 0 1.73 3h18.26a2 2 0 0 0 1.73-3L23.75 16a2 2 0 0 0-3.46 0z" fill="#ff5c62"/><path d="M131.94 59.27h88.22a2 2 0 0 1 2 2v82.1h-92.22v-82.1a2 2 0 0 1 2-2z" fill="#ffd435"/><path fill="none" stroke="#374dff" stroke-linecap="round" stroke-linejoin="round" stroke-width="4" d="M141.53 77.24v-6.12h21.18v6.12m-6.59 14.75h-8m4 0V71.12m22.92 0h37.3m-37.3 10.44h15.43m-15.43 10.43h27.92m-61.43 10.43h54.48m-54.48 10.43h29.92m10.17 0h20.13m-60.22 10.43h51.63m-51.63 10.44h25.18"/><path d="M100.78 279.93a2 2 0 0 1-1.41-3.42l2.08-2.08c3.89-3.89 5.43-12.4 4.16-17.12-.39-1.46-.89-1.9-1.06-1.94s-.92.1-2.18 1.37L82 277.11a2 2 0 0 1-2.83-2.83l20.37-20.37c2.11-2.11 4.14-2.92 6-2.41 1.28.35 3 1.45 3.89 4.77 1.58 5.89-.17 16-5.2 21l-2.08 2.08a2 2 0 0 1-1.37.58zM97.58 294a9.32 9.32 0 0 1 10 0h4.62a1.76 1.76 0 0 0-.52-1.26 12.9 12.9 0 0 0-18.25 0A1.76 1.76 0 0 0 93 294z" fill="#374dff"/><path d="M56.92 294a18.91 18.91 0 1 1 37.82 0z" fill="#fff"/><path d="M192.49 256.27c-.89-3.32-2.61-4.42-3.89-4.77-1.91-.51-3.94.3-6 2.41l-38.68 38.68a2 2 0 0 0-.58 1.41h4.82l37.27-37.26c1.26-1.27 2-1.41 2.18-1.37s.67.48 1.06 1.94c1.27 4.72-.27 13.23-4.16 17.12l-2.08 2.08a2 2 0 0 0 2.83 2.83l2.08-2.08c4.98-5.03 6.72-15.1 5.15-20.99z" fill="#374dff"/><path d="M110.47 294a18.91 18.91 0 1 1 37.82 0z" fill="#fff"/><path d="M56.92 294h14.49c-3.34-4.08-6.71-8.13-10.11-12.09A18.83 18.83 0 0 0 56.92 294zm37.82 0a18.91 18.91 0 0 0-18.91-18.91c-.42 0-.83 0-1.25.05C80.35 281.19 86 287.45 91.11 294zm53.55 0a18.89 18.89 0 0 0-18-18.86A242.43 242.43 0 0 1 145.78 294zm-35.16-9.64a102.71 102.71 0 0 0 6.56 9.64h10.06c-3.82-5-7.8-10-11.8-15.05a19.19 19.19 0 0 0-4.82 5.41z" fill="#374dff" opacity=".1"/></svg>