<svg width="48" height="48" xmlns="http://www.w3.org/2000/svg" xmlns:xlink="http://www.w3.org/1999/xlink"><defs><path d="M27.897 16.808h3.065a2.654 2.654 0 0 1 2.653 2.654v9.73a2.654 2.654 0 0 1-2.653 2.654H15.038a2.654 2.654 0 0 1-2.653-2.654v-9.73a2.654 2.654 0 0 1 2.653-2.654h3.065l1.507-2.26a.885.885 0 0 1 .736-.394h5.308c.296 0 .572.148.736.394l1.507 2.26zm-7.077-.885l-1.507 2.26a.885.885 0 0 1-.736.394h-3.539a.885.885 0 0 0-.884.885v9.73c0 .489.396.885.884.885h15.924a.885.885 0 0 0 .884-.885v-9.73a.885.885 0 0 0-.884-.885h-3.539a.885.885 0 0 1-.736-.394l-1.507-2.26h-4.36zM23 28.308a4.423 4.423 0 1 1 0-8.846 4.423 4.423 0 0 1 0 8.846zm0-1.77a2.654 2.654 0 1 0 0-5.307 2.654 2.654 0 0 0 0 5.307z" id="a"/></defs><g transform="translate(1 1)" fill="none" fill-rule="evenodd"><circle stroke="#2524FF" stroke-width="2" cx="23" cy="23" r="23"/><use fill="#2524FF" fill-rule="nonzero" xlink:href="#a"/></g></svg>