<svg width="135" height="37" xmlns="http://www.w3.org/2000/svg"><g fill="#2524FF" fill-rule="evenodd"><g stroke="#EFF7FF" stroke-width=".76"><path d="M1.428 4.919c-.42.133-.691.566-.691 1.22l.002 20.585c0 .647.263 1.073.671 1.215l11.313-11.52L1.428 4.92"/><path d="M1.41 27.939c.294.101.661.054 1.062-.17l13.805-7.73-3.554-3.62L1.41 27.94m14.87-7.901l4.707-2.636c.954-.536.954-1.409 0-1.944l-4.725-2.645-3.539 3.604 3.556 3.62m-.018-7.224L2.472 5.094c-.39-.217-.752-.268-1.044-.175l11.295 11.499 3.538-3.604"/></g><path d="M47.537 29.475l-2.923.682c-1.185.19-2.249.357-3.375.357-5.64 0-7.788-4.226-7.788-7.534 0-4.04 3.044-7.785 8.258-7.785 1.104 0 2.165.165 3.132.434 1.532.438 2.248.978 2.696 1.295l-1.698 1.642-.716.163.51-.828c-.691-.688-1.962-1.957-4.375-1.957-3.225 0-5.658 2.496-5.658 6.141 0 3.915 2.778 7.597 7.234 7.597 1.31 0 1.983-.268 2.595-.518v-3.356l-3.087.17 1.636-.896h4.333l-.53.52c-.143.123-.162.165-.202.331-.022.19-.042.793-.042 1.004v2.538zm6.705.77c-3.467 0-5.318-2.748-5.318-5.236 0-2.908 2.332-5.396 5.647-5.396 3.204 0 5.21 2.556 5.21 5.24 0 2.62-1.982 5.393-5.539 5.393zm2.728-1.795c.524-.711.654-1.598.654-2.463 0-1.955-.918-5.685-3.62-5.685a3 3 0 0 0-1.962.753c-.853.778-1.004 1.754-1.004 2.712 0 2.194 1.07 5.812 3.708 5.812.851 0 1.72-.42 2.224-1.13zm8.878 1.796c-3.466 0-5.32-2.749-5.32-5.237 0-2.908 2.33-5.396 5.647-5.396 3.207 0 5.214 2.556 5.214 5.24 0 2.62-1.984 5.393-5.54 5.393zm2.728-1.796c.527-.711.655-1.598.655-2.463 0-1.955-.915-5.685-3.62-5.685a3.01 3.01 0 0 0-1.966.753c-.851.778-1.003 1.754-1.003 2.712 0 2.194 1.065 5.812 3.708 5.812.853 0 1.724-.42 2.226-1.13zm10.793-7.747c.501.419 1.546 1.309 1.546 2.996 0 1.644-.91 2.42-1.829 3.153-.281.289-.611.602-.611 1.086 0 .492.33.758.567.957l.788.62c.957.822 1.83 1.577 1.83 3.11 0 2.089-1.985 4.195-5.736 4.195-3.16 0-4.688-1.532-4.688-3.175 0-.8.39-1.932 1.68-2.708 1.353-.842 3.184-.954 4.165-1.02-.306-.403-.656-.825-.656-1.513 0-.376.111-.6.219-.865-.239.023-.48.047-.698.047-2.313 0-3.62-1.757-3.62-3.489 0-1.02.457-2.154 1.397-2.975 1.243-1.042 2.726-1.222 3.904-1.222h4.494l-1.397.803h-1.355zm-1.545 9.857c-.179-.023-.286-.023-.502-.023-.198 0-1.376.043-2.288.355-.483.18-1.878.71-1.878 2.288 0 1.574 1.506 2.709 3.837 2.709 2.093 0 3.205-1.022 3.205-2.398 0-1.132-.72-1.73-2.374-2.93zm.627-4.219c.504-.512.548-1.22.548-1.622 0-1.597-.935-4.085-2.748-4.085-.565 0-1.178.29-1.526.736-.369.463-.48 1.063-.48 1.64 0 1.487.853 3.953 2.726 3.953a2.21 2.21 0 0 0 1.48-.622zm6.879 1.955c0 .863.151.997.868 1.065.373.045.746.064 1.114.11l-.807.488h-3.843c.504-.666.59-.732.59-1.176v-.495l-.008-13.203h-1.697l1.634-.801H86.3c-.676.399-.878.641-.965 1.418l-.005 12.594zm10.72.172l-1.044 1.002c-.24.135-.48.292-.72.403-.724.335-1.46.419-2.115.419-.697 0-1.79-.046-2.903-.867-1.548-1.11-2.225-3.018-2.225-4.68 0-3.443 2.753-5.132 4.998-5.132.784 0 1.59.2 2.245.622 1.09.734 1.372 1.687 1.528 2.198l-5.127 2.109-1.679.132c.544 2.823 2.42 4.465 4.492 4.465 1.035 0 1.804-.344 2.509-.699 0 0 .141-.075.04.028zm-3.094-5.615c.417-.154.633-.287.633-.596 0-.887-.985-1.912-2.162-1.912-.87 0-2.507.691-2.507 3.09 0 .375.044.774.066 1.172l3.97-1.754zm9.38 5.71v5.655h-1.104V19.827h1.104v1.639c.718-1.06 2.031-1.899 3.557-1.899 2.735 0 4.578 2.113 4.578 5.458 0 3.322-1.843 5.479-4.578 5.479-1.44 0-2.73-.756-3.557-1.941zm6.95-3.538c0-2.521-1.291-4.444-3.58-4.444-1.42 0-2.78 1.137-3.37 2.129v4.606c.59.994 1.95 2.173 3.37 2.173 2.289 0 3.58-1.94 3.58-4.464zm2.691-9.172h1.103v14.392h-1.103V15.853zm10.259 14.36c-.074-.36-.13-.68-.17-.945a6.456 6.456 0 0 1-.053-.812c-.378.565-.914 1.036-1.598 1.406-.685.373-1.336.556-2.229.556-1.074 0-1.909-.269-2.504-.815-.593-.545-.892-1.284-.892-2.22 0-.933.433-1.691 1.295-2.27.862-.583 1.976-.873 3.355-.873h2.573v-1.294c0-.746-.25-1.332-.748-1.757-.5-.426-1.202-.64-2.112-.64-.832 0-1.506.196-2.02.579-.51.39-.766.875-.766 1.459h-1.129l-.023-.056c-.04-.787.313-1.478 1.064-2.074.749-.595 1.729-.895 2.936-.895 1.202 0 2.175.295 2.909.883.733.583 1.1 1.424 1.1 2.525v5.139c0 .369.018.725.063 1.073.047.348.121.695.22 1.032h-1.271zm-3.915-.818c.937 0 1.61-.213 2.3-.635.683-.419 1.148-.966 1.392-1.628v-2h-2.585c-.988 0-1.805.222-2.448.671-.645.447-.97.989-.97 1.619 0 .594.206 1.069.617 1.429.412.364.976.544 1.694.544zm7.137 3.893c.236.107.639.173.894.173.674 0 1.144-.281 1.566-1.273l.805-1.857-4.346-10.504h1.23l3.729 9.103 3.691-9.103h1.248l-5.3 12.709c-.55 1.31-1.415 1.939-2.604 1.939a4.29 4.29 0 0 1-1.102-.15l.189-1.037zM33.369 3.987c0-2.235 1.644-3.672 3.69-3.672 1.37 0 2.266.66 2.825 1.469l-1.002.585a2.262 2.262 0 0 0-1.823-.947c-1.391 0-2.425 1.064-2.425 2.565 0 1.479 1.034 2.565 2.425 2.565.717 0 1.349-.33 1.665-.639V4.817h-2.108V3.721h3.331v2.65A3.782 3.782 0 0 1 37.06 7.67c-2.046 0-3.69-1.458-3.69-3.683zm8.103 3.544v-7.1h4.818V1.53h-3.585v1.83h3.511v1.096h-3.51v1.98h3.584V7.53h-4.818zm8.23 0V1.53h-2.129V.432h5.492v1.097h-2.13V7.53h-1.233zm7.65-7.1h1.233v7.1h-1.233v-7.1zm4.668 7.1V1.53h-2.13V.432h5.492v1.097h-2.129V7.53H62.02zm7.343-3.544c0-2.118 1.486-3.672 3.595-3.672 2.097 0 3.595 1.554 3.595 3.672 0 2.118-1.498 3.672-3.595 3.672-2.109 0-3.595-1.554-3.595-3.672zm5.925 0c0-1.469-.918-2.565-2.33-2.565-1.423 0-2.33 1.096-2.33 2.565 0 1.458.907 2.565 2.33 2.565 1.412 0 2.33-1.107 2.33-2.565zm7.607 3.544l-3.669-5.077v5.077h-1.233v-7.1h1.265l3.595 4.919V.432h1.233v7.1h-1.191z"/></g></svg>