<svg width="24" height="24" xmlns="http://www.w3.org/2000/svg"><g fill="none" fill-rule="evenodd"><path d="M0 0h24v24H0z"/><path d="M15.989 7.754h-1.947a.388.388 0 0 1-.39-.386v-.666c0-1-.734-1.893-1.737-1.99A1.927 1.927 0 0 0 9.79 6.615v.752a.388.388 0 0 1-.389.386H7.455a.387.387 0 0 1-.389-.386v-.616c0-2.403 1.795-4.506 4.207-4.73 2.768-.26 5.105 1.902 5.105 4.594v.752a.388.388 0 0 1-.389.386" fill="#374DFF"/><path d="M6.204 21.077A.204.204 0 0 1 6 20.873v-9.732a.203.203 0 0 1 .345-.148l10.389 9.733a.199.199 0 0 1 .05.223.201.201 0 0 1-.19.128H6.203z" fill="#FF5C62"/><path d="M17.882 19.526a.197.197 0 0 1-.138-.056L7.355 9.737a.199.199 0 0 1-.05-.223.201.201 0 0 1 .19-.128h10.39c.113 0 .204.091.204.203v9.733c0 .074-.034.12-.062.147a.217.217 0 0 1-.145.057m.59 1.773z" fill="#FFD435"/></g></svg>