<svg width="24" height="24" xmlns="http://www.w3.org/2000/svg" xmlns:xlink="http://www.w3.org/1999/xlink"><defs><path id="a" d="M0 .075h17.443v8.308H0z"/></defs><g fill="none" fill-rule="evenodd"><path d="M0 0h24v24H0z"/><g transform="translate(2 4.373)"><mask id="b" fill="#fff"><use xlink:href="#a"/></mask><path d="M.213 8.038c-.164-.008-.201-.142-.21-.183-.006-.042-.02-.18.131-.246L17.444.075 8.08 8.327a.222.222 0 0 1-.147.056l-7.72-.345z" fill="#374DFF" mask="url(#b)"/></g><path d="M11.02 20.925a.303.303 0 0 1-.305-.305v-5.34a.304.304 0 0 1 .42-.28l4.043 1.725-3.944 4.107a.29.29 0 0 1-.214.094" fill="#FF5C62"/><path d="M18.583 16.378a.215.215 0 0 1-.086-.017l-6.47-2.76a.221.221 0 0 1-.132-.171.221.221 0 0 1 .073-.204l9.595-8.459-2.764 11.44a.222.222 0 0 1-.216.171" fill="#FFD435"/></g></svg>