<svg width="19" height="19" xmlns="http://www.w3.org/2000/svg" xmlns:xlink="http://www.w3.org/1999/xlink"><defs><path d="M7.267 11.524l-.772-2.24-1.5.516a.793.793 0 0 1-.516-1.498l1.5-.516-.517-1.503a.792.792 0 1 1 1.498-.516l.518 1.503 2.24-.771-.516-1.5a.792.792 0 1 1 1.499-.516l.516 1.5 1.504-.517a.793.793 0 0 1 .516 1.498l-1.504.517.772 2.24 1.5-.516a.793.793 0 0 1 .516 1.498l-1.5.517.517 1.503a.792.792 0 1 1-1.499.516l-.517-1.504-2.24.772.516 1.5a.792.792 0 1 1-1.5.515l-.516-1.5-1.503.518a.793.793 0 0 1-.516-1.498l1.504-.518zm1.498-.516l2.24-.77-.77-2.24-2.241.77.771 2.24zm9.483-4.11c1.92 6.379.266 9.42-6.142 11.35-6.381 1.92-9.424.266-11.353-6.14C-1.168 5.728.486 2.687 6.894.758c6.4-1.926 9.43-.288 11.354 6.14zm-1.519.456C15.057 1.762 12.91.602 7.351 2.275 1.778 3.953.603 6.113 2.27 11.651c1.677 5.572 3.838 6.746 9.378 5.08 5.573-1.678 6.748-3.839 5.08-9.377z" id="a"/></defs><use fill="#2524FF" xlink:href="#a"/></svg>