<svg width="24" height="24" xmlns="http://www.w3.org/2000/svg" xmlns:xlink="http://www.w3.org/1999/xlink"><defs><path id="a" d="M.018.395h7.47v7.313H.019z"/><path id="c" d="M0 .243h7.47v7.314H0z"/></defs><g fill="none" fill-rule="evenodd"><path d="M0 0h24v24H0z"/><path d="M4.184 7.567A8.73 8.73 0 0 1 5.66 5.625C7.297 3.996 9.469 3.089 11.939 3c2.429.101 4.59 1.009 6.215 2.625a8.795 8.795 0 0 1 1.478 1.948l-2.66 1.11a5.957 5.957 0 0 0-5.065-2.788 5.941 5.941 0 0 0-4.227 1.74 5.922 5.922 0 0 0-.848 1.059L4.184 7.567z" fill="#FFC0D8"/><path d="M11.936 20.628c-2.443-.102-4.596-1.01-6.22-2.625a8.791 8.791 0 0 1-1.479-1.948l2.658-1.11c.236.375.518.726.842 1.048a5.953 5.953 0 0 0 4.226 1.74 5.943 5.943 0 0 0 4.227-1.74c.323-.322.607-.676.847-1.059l2.649 1.127a8.76 8.76 0 0 1-1.476 1.942c-1.636 1.627-3.804 2.534-6.272 2.625h-.002z" fill="#FFD435"/><g transform="translate(14.381 4.996)"><mask id="b" fill="#fff"><use xlink:href="#a"/></mask><path d="M6.964 7.272L7.487.908a.476.476 0 0 0-.729-.44L.241 4.55a.473.473 0 0 0 .084.843l5.994 2.284a.476.476 0 0 0 .645-.405" fill="#374DFF" mask="url(#b)"/></g><g transform="translate(2 10.68)"><mask id="d" fill="#fff"><use xlink:href="#c"/></mask><path d="M.524.68L.001 7.042a.476.476 0 0 0 .729.44l6.518-4.081a.473.473 0 0 0-.084-.843L1.17.275a.476.476 0 0 0-.645.404" fill="#FF5C62" mask="url(#d)"/></g></g></svg>